# xmcd CD database file
#
# Track frame offsets:
#	150
#	29441
#	51234
#	85174
#	105029
#	129266
#	160188
#	188251
#	205836
#	231009
#	259984
#	282827
#	306600
#
# Disc length: 4314 seconds
#
# Revision: 1
# Processed by: cddbd v1.5.2PL0 Copyright (c) Steve Scherf et al.
# Submitted via: CDex 1.70beta2
#
DISCID=a510d80d
DTITLE=Tim Rodig 5 - Floating Around
DYEAR=2006
DGENRE=Jazz
TTITLE0=Kenny and Elvin
TTITLE1=Nasty dance
TTITLE2=Floating around
TTITLE3=Bum und Bim
TTITLE4=My brother
TTITLE5=Fünf Gänge zurück
TTITLE6=No moe fo yo
TTITLE7=Blues in der Küche
TTITLE8=Süsses Leiden
TTITLE9=This is where it's at
TTITLE10=Für Stefan
TTITLE11=Herr Z aus Ö
TTITLE12=Pussy galore
EXTD=YEAR: 2006
EXTT0=
EXTT1=
EXTT2=
EXTT3=
EXTT4=
EXTT5=
EXTT6=
EXTT7=
EXTT8=
EXTT9=
EXTT10=
EXTT11=
EXTT12=
PLAYORDER=
